<svg xmlns:xlink="http://www.w3.org/1999/xlink" aria-hidden="true" data-glyph="game-type-960-live" viewBox="0 0 24 24" height="50" width="50" xmlns="http://www.w3.org/2000/svg"><path xmlns="http://www.w3.org/2000/svg" d="M15.5 2H13.5V3.62C17.7 4.29 21 7.73 21.45 12H18.45C18.06 8.59 15.66 6.5 12.01 6.5C8.35 6.5 5.95 8.59 5.57 12H2.57C3.02 7.73 6.32 4.29 10.52 3.62V2H8.52C8.52 0.3 8.95 0 12.02 0C15.09 0 15.52 0.3 15.52 2H15.5ZM10.56 12L11.5 8H12.5L13.45 12H10.56ZM21.57 24H18.44C17.41 24 17.01 23.6 17.01 22.57V15.44C17.01 14.41 17.41 14.01 18.44 14.01H21.57C22.6 14.01 23 14.41 23 15.44V22.57C23 23.6 22.6 24 21.57 24ZM5.57 24H1V22H5V20H2.43C1.4 20 1 19.6 1 18.57V15.44C1 14.41 1.4 14.01 2.43 14.01H5.56C6.59 14.01 6.99 14.41 6.99 15.44V22.57C6.99 23.6 6.59 24 5.56 24H5.57ZM3 18H5V16H3V18ZM11 22H13V20H11V22ZM13.57 24H10.44C9.41 24 9.01 23.6 9.01 22.57V15.44C9.01 14.41 9.41 14.01 10.44 14.01H15.01V16.01H11.01V18.01H13.58C14.61 18.01 15.01 18.41 15.01 19.44V22.57C15.01 23.6 14.61 24 13.58 24H13.57ZM19 22H21V16H19V22Z" fill="#FA742C"></path></svg>